<?xml version="1.0" standalone="no"?>
<!DOCTYPE svg PUBLIC "-//W3C//DTD SVG 20010904//EN"
 "http://www.w3.org/TR/2001/REC-SVG-20010904/DTD/svg10.dtd">
<svg version="1.0" xmlns="http://www.w3.org/2000/svg"
 width="1280.000000pt" height="1280.000000pt" viewBox="0 0 1280.000000 1280.000000"
 preserveAspectRatio="xMidYMid meet">

<g transform="translate(0.000000,1280.000000) scale(0.100000,-0.100000)"
fill="#000000" stroke="none">
<path d="M5990 10621 c-100 -22 -218 -61 -315 -106 -267 -122 -572 -419 -709
-692 -21 -42 -55 -90 -80 -113 -55 -51 -101 -138 -116 -218 -12 -67 -8 -123
17 -214 14 -52 18 -58 42 -58 18 0 38 -11 57 -32 16 -18 20 -26 10 -18 -15 12
-20 12 -23 3 -3 -7 -11 -13 -19 -13 -16 0 -82 -35 -108 -58 -27 -25 -46 -66
-57 -130 -12 -63 -4 -176 14 -195 7 -6 12 -25 12 -42 0 -23 5 -31 23 -33 12
-2 22 -8 22 -14 0 -5 -7 -8 -15 -4 -18 7 -18 6 0 -35 l14 -34 1 28 c0 16 6 35
14 43 13 12 17 6 31 -43 10 -32 18 -65 19 -73 7 -42 105 -49 141 -10 13 14 25
17 47 13 38 -7 69 21 98 90 36 88 42 97 67 97 13 0 23 6 23 14 0 16 27 29 42
20 5 -3 12 2 14 13 8 30 41 41 189 59 62 8 68 13 89 72 10 26 21 56 26 67 5
11 14 37 20 58 6 20 16 37 22 37 6 0 8 3 5 6 -4 4 10 16 31 27 40 22 138 32
162 17 11 -7 11 -10 3 -11 -68 -8 -125 -64 -159 -154 -39 -104 -16 -268 43
-315 34 -26 56 -25 84 5 13 13 29 25 36 25 6 0 13 4 15 8 6 14 72 50 106 57
39 8 47 23 56 96 9 70 27 86 114 99 143 21 222 7 237 -41 4 -12 4 -61 1 -108
l-7 -87 56 -39 c31 -21 72 -56 90 -78 30 -34 37 -38 50 -27 9 8 23 27 31 44
l15 31 -26 -32 c-15 -18 -31 -33 -36 -33 -16 0 -9 53 12 100 12 25 23 77 26
118 5 67 8 73 27 70 16 -2 22 -12 27 -43 6 -36 6 -34 7 20 2 73 -25 128 -82
165 l-38 25 28 12 c37 16 106 16 139 1 28 -13 70 -91 81 -150 7 -43 10 -44 62
-22 20 9 53 16 72 16 28 -1 31 1 15 7 -14 6 0 9 43 9 46 0 69 5 83 18 16 15
19 15 19 2 0 -38 -33 -189 -55 -256 -30 -87 -32 -145 -6 -193 19 -35 38 -120
43 -188 4 -44 18 -48 55 -17 40 34 51 81 58 246 6 152 18 248 34 278 6 11 28
26 49 35 83 33 159 149 188 289 22 102 14 341 -15 453 -71 270 -225 551 -396
720 -159 157 -322 253 -522 306 -114 31 -356 36 -473 10z m420 -287 c181 -41
317 -186 328 -350 7 -106 -15 -163 -93 -241 -34 -34 -74 -65 -88 -69 -16 -3
-74 5 -144 20 -65 15 -183 35 -263 45 l-144 18 -34 39 c-57 66 -77 118 -77
209 0 67 4 89 28 136 79 162 277 241 487 193z m-1093 -1011 c0 -10 -5 -24 -11
-32 -7 -9 -11 -67 -12 -150 -2 -187 -1 -181 -22 -181 -38 0 -53 63 -49 195 5
132 9 151 38 158 10 3 17 1 14 -3 -3 -5 -1 -11 5 -15 5 -3 10 0 10 7 0 11 18
38 25 38 1 0 2 -8 2 -17z m-349 -276 c20 -31 32 -60 30 -76 l-3 -25 -15 30
c-8 16 -27 48 -42 71 -15 23 -28 46 -28 52 0 21 26 -2 58 -52z m870 -74 c-2
-10 -10 -18 -18 -18 -8 0 -16 8 -18 18 -2 12 3 17 18 17 15 0 20 -5 18 -17z
m-854 -75 c-3 -4 -10 -6 -15 -3 -11 7 -12 49 -2 59 9 9 24 -44 17 -56z m1494
-12 c5 -24 -10 -38 -31 -30 -17 6 -23 35 -10 48 12 12 38 1 41 -18z m-797 -73
c-13 -23 -24 2 -16 35 l7 27 9 -23 c5 -14 5 -30 0 -39z m231 -15 c-7 -7 -12
-8 -12 -2 0 14 12 26 19 19 2 -3 -1 -11 -7 -17z"/>
<path d="M6176 10237 c-17 -23 -74 -102 -129 -175 l-100 -134 49 -49 c26 -27
54 -49 62 -49 7 0 43 63 79 140 37 77 70 140 74 140 4 0 28 -38 54 -85 25 -47
49 -85 53 -85 3 0 37 30 74 67 37 37 70 64 73 61 3 -3 15 -75 26 -159 11 -84
21 -154 23 -156 2 -2 33 9 70 26 l65 29 -15 54 c-27 91 -115 362 -119 367 -3
2 -41 -23 -84 -57 -44 -34 -84 -62 -89 -62 -5 0 -34 38 -66 85 -31 47 -59 85
-64 85 -4 0 -20 -19 -36 -43z"/>
<path d="M5278 8680 c-17 -27 -35 -47 -40 -44 -5 3 -20 -2 -35 -11 -24 -16
-25 -21 -20 -78 3 -34 8 -78 10 -97 3 -19 8 -59 11 -88 4 -29 20 -94 36 -145
17 -50 30 -105 30 -121 -1 -17 1 -45 4 -62 l5 -30 -72 24 c-40 13 -82 33 -95
45 -43 40 -88 149 -107 256 -20 112 -33 124 -67 63 -18 -32 -18 -33 2 -40 20
-7 19 -9 -9 -30 -68 -50 -59 -138 24 -219 53 -51 57 -63 25 -63 -10 0 -49 -16
-87 -35 -152 -76 -223 -211 -223 -426 0 -97 20 -212 70 -412 23 -87 38 -163
34 -169 -4 -5 -6 -32 -5 -58 l1 -47 -52 14 c-243 62 -523 -96 -563 -318 -5
-24 1 -64 16 -120 l23 -84 14 35 c29 72 131 184 150 165 4 -3 2 -9 -3 -13 -34
-24 -139 -328 -130 -377 4 -24 3 -26 -4 -10 -9 18 -10 17 -10 -8 -1 -15 -7
-29 -13 -32 -7 -2 -148 -6 -313 -9 -165 -3 -318 -11 -340 -16 -22 -6 -58 -14
-80 -17 -47 -6 -73 -25 -176 -125 -64 -63 -84 -91 -136 -193 -33 -66 -77 -169
-97 -230 l-37 -110 -171 -135 c-214 -169 -308 -256 -336 -312 -42 -79 -53 -88
-115 -95 -31 -3 -62 -12 -68 -19 -6 -8 -25 -14 -41 -14 -20 0 -46 -13 -81 -42
-195 -164 -273 -292 -360 -593 -132 -455 -127 -1085 10 -1435 54 -137 117
-233 209 -315 48 -42 98 -81 113 -86 36 -15 180 -29 349 -35 l144 -5 101 -68
c147 -97 214 -134 214 -116 0 8 -4 12 -9 9 -8 -5 -80 44 -86 59 -2 4 -17 14
-32 22 -16 8 -31 23 -35 34 -3 10 -20 25 -37 32 -17 7 -44 24 -60 37 -24 21
-31 23 -39 11 -7 -12 -16 -10 -50 10 -52 29 -192 129 -239 170 l-35 30 56 -29
c31 -17 62 -37 69 -45 7 -8 18 -15 24 -15 6 0 28 -11 47 -25 20 -13 39 -21 43
-18 3 3 8 -1 11 -9 4 -10 14 -14 26 -11 42 11 159 -58 159 -95 0 -14 13 -13
50 2 16 7 80 -42 80 -61 0 -6 22 -36 50 -66 54 -59 59 -69 33 -61 -10 3 0 -6
22 -20 22 -15 48 -25 58 -22 9 2 15 1 12 -4 -2 -4 31 -19 75 -34 59 -20 105
-28 182 -32 l103 -4 95 46 c52 26 110 54 129 63 18 9 47 32 63 51 17 19 27 29
23 21 -5 -9 -4 -12 3 -7 7 4 12 11 12 16 0 5 19 36 42 69 31 45 44 58 50 47
26 -47 -40 -126 -174 -209 -34 -22 -54 -37 -43 -33 43 15 156 90 228 151 l75
65 472 0 c286 0 478 4 490 10 10 5 20 20 24 33 5 22 12 25 88 30 46 4 173 7
284 7 l201 0 9 -32 10 -33 344 -3 c365 -2 360 -3 360 46 l0 22 294 0 294 0 7
-30 c4 -19 14 -32 28 -35 12 -3 171 -2 352 2 l330 8 14 33 15 32 262 0 c250 0
264 -1 274 -19 28 -53 3 -51 532 -51 l490 0 66 -61 c168 -152 377 -227 564
-199 154 22 262 77 492 247 88 65 105 74 133 70 39 -7 263 18 313 34 19 7 55
28 80 48 25 19 51 40 58 46 127 99 238 345 289 640 24 142 24 560 0 735 -33
231 -80 406 -151 562 -50 108 -145 247 -205 298 -29 25 -72 62 -96 83 -28 24
-57 40 -82 44 -21 3 -44 10 -51 16 -6 5 -51 13 -100 18 -65 7 -90 13 -99 26
-7 10 -19 27 -28 38 -14 19 -15 19 -5 -8 10 -30 10 -30 -43 -41 -37 -9 -110
24 -133 59 -16 25 -16 28 -2 36 9 5 14 17 11 28 -3 14 2 20 24 24 32 6 93 -16
93 -34 0 -7 3 -9 7 -6 15 15 -75 88 -377 304 l-155 111 -25 83 c-13 46 -51
138 -84 204 -50 100 -73 133 -140 203 -132 137 -154 150 -298 172 -99 14 -184
18 -433 18 l-309 0 -11 54 c-24 120 -101 213 -223 271 -64 31 -73 32 -187 32
-91 -1 -129 -5 -158 -18 -55 -24 -77 -10 -77 48 0 24 -5 47 -11 50 -16 10 39
52 101 77 47 19 75 23 185 23 117 0 135 -2 179 -24 96 -47 163 -131 202 -250
l21 -64 12 87 c14 99 3 182 -31 250 -124 247 -475 321 -703 148 -46 -34 -51
-43 -59 -92 -11 -70 -8 -211 6 -228 15 -18 3 -91 -20 -115 -11 -12 -23 -40
-26 -62 -12 -74 -20 -73 -75 9 -28 42 -54 76 -57 76 -3 0 -2 -4 1 -10 3 -5 2
-10 -3 -10 -14 0 -62 55 -62 72 0 8 -10 22 -22 30 -17 11 -19 16 -8 23 9 6 11
4 5 -5 -5 -9 -4 -11 4 -6 6 4 9 12 5 17 -3 5 -9 7 -14 4 -8 -5 -25 11 -32 30
-1 5 -9 8 -17 7 -7 -2 -10 1 -7 7 6 10 2 15 -44 50 l-24 19 27 35 c27 36 35
67 18 67 -7 0 -41 54 -41 65 0 2 12 6 27 10 24 6 26 8 13 18 -8 7 -23 24 -33
40 -10 15 -26 27 -36 27 -11 0 -33 11 -49 24 l-29 25 -16 -53 c-19 -60 -62
-129 -95 -152 -19 -13 -24 -13 -45 1 -13 8 -34 38 -47 65 -27 58 -44 62 -89
24 -17 -14 -35 -23 -40 -20 -5 3 -11 -4 -15 -17 -4 -16 1 -28 22 -44 26 -22
26 -23 5 -23 -12 0 -29 10 -37 21 l-15 22 -25 -20 c-16 -13 -35 -19 -51 -16
-24 5 -25 9 -25 72 0 49 -5 75 -21 101 -58 96 -109 108 -109 25 0 -21 -28 -56
-38 -45 -2 3 -11 -15 -19 -40 -22 -65 -68 -110 -113 -110 -50 0 -60 14 -60 89
-1 80 -12 133 -36 168 -24 33 -27 38 -52 93 l-21 45 0 -50 c-1 -28 -10 -82
-21 -120 -27 -94 -26 -131 6 -177 15 -21 31 -38 35 -38 5 0 9 -4 9 -10 0 -20
-23 -9 -56 26 -21 22 -34 46 -34 62 0 26 -1 26 -18 -8 -57 -115 -233 -104
-296 18 -25 49 -53 391 -36 442 9 28 -34 13 -60 -21 -14 -18 -44 -53 -67 -79
-46 -50 -73 -104 -73 -144 0 -13 -5 -26 -10 -28 -7 -2 -7 -14 -1 -36 13 -45
-6 -31 -29 22 -27 61 -33 125 -21 207 13 86 73 221 120 270 17 18 30 34 27 36
-2 2 -50 -22 -107 -52 -57 -31 -114 -58 -127 -62 -12 -3 -29 -20 -38 -39 -9
-19 -18 -33 -21 -31 -7 8 29 87 38 81 5 -3 7 1 4 8 -13 34 133 186 220 231 75
38 163 58 281 66 103 6 125 10 153 30 31 22 32 25 15 34 -18 10 -100 33 -157
44 -35 7 -40 15 -22 40 14 20 25 21 176 23 139 1 166 3 197 20 20 11 45 20 55
20 34 0 171 52 205 77 18 14 43 45 55 70 19 39 29 47 75 63 63 21 94 48 123
108 19 39 21 55 16 130 -4 47 -10 89 -15 94 -6 6 -25 2 -49 -10 -49 -26 -208
-72 -245 -72 -24 0 -28 -4 -28 -27 0 -31 -29 -100 -60 -143 -17 -24 -28 -29
-87 -34 -61 -6 -100 -2 -213 20 -86 17 -290 147 -290 186 0 15 -57 68 -74 68
-14 0 -16 -14 -16 -95 0 -58 4 -95 10 -95 6 0 1 -18 -10 -41 l-21 -41 -34 39
c-63 71 -89 131 -90 203 0 36 3 84 7 107 l8 41 -50 -13 c-47 -12 -52 -12 -102
13 -29 15 -85 57 -124 95 -39 37 -74 67 -78 67 -4 0 -21 -22 -38 -50z m536
-506 c9 -22 8 -24 -9 -18 -8 4 -15 12 -15 20 0 19 16 18 24 -2z m-383 -926
c-8 -28 -9 -30 -10 -8 -1 34 12 80 17 58 2 -9 -1 -31 -7 -50z m-14 -80 c-3 -7
-5 -2 -5 12 0 14 2 19 5 13 2 -7 2 -19 0 -25z m-195 -105 c8 -10 18 -27 20
-38 3 -11 9 -29 14 -40 l7 -20 -23 20 c-19 17 -50 72 -50 90 0 11 18 4 32 -12z
m318 -525 c-20 -33 -24 -41 -42 -90 -6 -16 -14 -28 -19 -28 -5 0 -9 -9 -9 -20
0 -11 -7 -23 -15 -26 -8 -4 -15 -9 -15 -13 0 -4 -21 -29 -46 -57 -25 -27 -78
-91 -116 -141 -38 -51 -72 -93 -74 -93 -3 0 -2 6 2 13 13 21 49 72 55 77 8 8
22 44 20 53 -1 5 3 6 8 3 14 -9 62 58 125 177 60 112 108 177 132 177 10 0 9
-8 -6 -32z m1482 -84 c82 -8 187 -21 234 -29 47 -7 92 -11 100 -8 13 5 46 -4
104 -30 57 -25 125 -87 179 -162 87 -121 155 -232 190 -310 17 -38 35 -72 40
-75 5 -3 19 -25 31 -50 13 -25 36 -64 51 -87 16 -23 29 -44 29 -46 0 -3 29
-53 65 -112 36 -59 65 -109 65 -110 0 -2 29 -52 64 -112 80 -137 226 -406 345
-637 l93 -179 -64 6 c-34 4 -131 9 -215 13 l-152 6 -10 27 c-6 14 -13 40 -17
56 -11 47 -62 150 -89 179 -14 15 -25 31 -25 37 0 5 -9 18 -20 29 -11 11 -20
29 -20 40 0 46 -62 121 -105 128 -38 6 -178 173 -269 320 -22 36 -30 41 -42
32 -8 -7 -14 -24 -14 -39 0 -19 -3 -22 -9 -12 -7 11 -13 12 -24 3 -9 -8 -24
-9 -45 -3 -23 7 -39 5 -66 -10 -142 -76 -339 -135 -551 -166 -186 -27 -517
-24 -704 5 -313 50 -505 121 -649 241 -246 205 -95 506 345 685 209 86 393
120 650 121 151 0 162 1 167 19 7 25 -1 36 -25 36 -10 0 -19 5 -19 11 0 6 -7
18 -16 26 -14 14 -54 15 -352 10 -185 -3 -366 -10 -402 -16 -36 -5 -87 -12
-115 -16 -124 -15 -236 -45 -261 -70 -9 -8 -20 -15 -25 -15 -19 0 57 57 106
79 111 52 458 95 830 103 76 2 58 4 -75 8 -151 5 -131 6 149 8 178 1 322 4
320 7 -9 9 -785 13 -869 4 -47 -4 -121 -11 -165 -13 -44 -3 -107 -8 -140 -11
-50 -4 -56 -3 -35 6 36 16 174 46 250 53 36 4 95 12 133 17 169 27 806 28
1049 3z m527 -86 c11 -15 11 -18 -1 -18 -7 0 -14 10 -15 21 -1 12 -1 20 0 18
2 -2 9 -12 16 -21z m-1641 -5 c-10 -2 -26 -2 -35 0 -10 3 -2 5 17 5 19 0 27
-2 18 -5z m-368 -187 c0 -14 -6 -31 -12 -38 -22 -23 -396 -760 -482 -951 -22
-48 -43 -87 -48 -87 -4 0 -8 -5 -8 -12 0 -6 -13 -40 -30 -75 -16 -34 -30 -68
-30 -73 0 -6 -5 -10 -12 -10 -6 0 -9 -3 -6 -6 4 -3 -11 -40 -31 -82 -21 -42
-49 -104 -62 -137 -13 -33 -33 -76 -44 -95 -11 -19 -26 -47 -33 -62 -7 -18
-20 -28 -34 -29 -13 0 -33 -2 -45 -3 -24 -3 -24 -1 21 94 15 30 24 44 21 30
-5 -22 -4 -23 5 -7 7 10 9 25 6 33 -3 8 -2 13 3 10 5 -3 14 9 22 27 7 17 80
190 162 382 82 193 155 366 162 386 21 58 276 567 299 596 13 17 15 24 6 19
-8 -4 -5 1 7 12 12 11 20 22 17 25 -3 2 9 9 25 15 17 6 31 14 31 17 0 3 -5 3
-12 -1 -7 -4 -8 -3 -4 5 4 6 11 9 16 6 5 -3 24 4 42 15 42 26 48 25 48 -4z
m-355 -146 c-9 -16 -18 -30 -21 -30 -2 0 2 14 11 30 9 17 18 30 21 30 2 0 -2
-13 -11 -30z m-58 -106 c-13 -27 -88 -175 -167 -328 -136 -265 -363 -729 -404
-826 -28 -66 -137 -304 -141 -308 -2 -2 -19 -5 -38 -6 l-35 -1 39 80 c82 166
142 281 157 298 8 9 12 17 8 17 -9 0 35 83 47 88 4 2 5 8 1 13 -3 5 3 9 13 9
14 0 15 2 5 9 -11 7 -11 11 0 22 8 8 21 34 31 59 24 64 54 110 72 110 18 0 38
36 29 52 -4 7 -3 8 4 4 7 -4 12 -2 12 5 0 14 224 462 279 559 21 36 53 95 72
132 18 37 35 65 37 63 2 -1 -8 -25 -21 -51z m3580 -147 c2 -3 -8 -4 -22 -4
-14 0 -25 3 -25 8 0 7 38 4 47 -4z m84 -38 c57 -29 145 -97 187 -143 32 -36
33 -36 115 -36 74 -1 86 -4 121 -29 l40 -28 24 29 c21 25 70 58 86 58 3 0 3
-6 0 -13 -5 -14 117 -147 135 -147 5 0 21 -10 35 -22 245 -217 383 -350 407
-391 9 -15 7 -17 -13 -13 -44 10 -95 31 -112 49 -10 9 -22 17 -27 17 -5 0 -9
7 -9 15 0 8 -4 15 -10 15 -5 0 -10 6 -10 14 0 12 -91 86 -106 86 -3 0 -19 9
-35 21 -23 16 -48 21 -121 24 -51 2 -105 6 -120 10 -30 8 -38 25 -13 25 21 0
20 54 -2 80 -14 16 -25 19 -50 14 -21 -4 -33 -2 -33 5 0 6 -7 11 -15 11 -8 0
-15 -4 -15 -8 0 -5 -11 -15 -25 -22 -14 -7 -25 -20 -25 -27 0 -11 5 -11 20 -3
15 8 20 8 20 -3 0 -23 -11 -27 -39 -13 -37 18 -64 10 -51 -15 7 -12 7 -19 1
-19 -9 0 -31 60 -31 83 0 4 -8 19 -17 33 -14 22 -18 24 -28 11 -9 -13 -21 -12
-95 9 -47 12 -112 32 -144 44 -33 11 -65 20 -73 20 -21 0 -106 45 -125 67 -37
41 -47 193 -12 193 8 0 14 4 14 9 0 25 95 19 151 -10z m2 -424 c146 -38 237
-116 272 -235 7 -23 5 -23 -16 6 -35 45 -79 83 -119 104 -138 70 -347 72 -522
5 -16 -6 -16 -4 -7 21 19 54 67 92 134 107 47 11 205 6 258 -8z m-5500 -35
c-11 -40 48 -190 103 -267 15 -21 15 -22 -8 -28 -12 -3 -128 -4 -257 -3 l-235
3 81 70 c139 122 294 245 308 245 8 0 11 -7 8 -20z m-289 -66 c-2 -26 -7 -51
-10 -55 -3 -5 0 -9 5 -9 6 0 11 5 11 11 0 5 5 7 10 4 17 -11 11 -25 -25 -62
-19 -20 -35 -32 -35 -27 0 5 -19 -12 -43 -36 -91 -95 -128 -120 -178 -120 -51
0 -59 9 -59 61 0 20 8 33 28 46 15 9 45 34 67 56 25 24 47 36 58 33 14 -3 16
0 11 16 -5 18 -3 20 15 15 11 -3 19 -1 18 3 -3 12 55 60 80 66 11 3 23 14 26
25 10 39 26 19 21 -27z m6192 -45 c3 -6 -5 -3 -20 6 -14 10 -26 19 -26 22 0 7
39 -17 46 -28z m774 -205 c0 -8 -7 -14 -15 -14 -17 0 -18 2 -9 24 7 18 24 12
24 -10z m-53 -1 c-13 -12 -820 -16 -813 -4 5 8 126 11 413 11 224 0 403 -3
400 -7z m-1077 -314 c4 -28 3 -67 -1 -87 -3 -20 -7 -31 -8 -24 0 6 -9 12 -20
12 -15 0 -19 11 -25 71 -6 71 -2 94 15 84 5 -4 9 -1 9 6 0 10 3 10 12 1 6 -6
14 -34 18 -63z m-2382 -126 c-21 -2 -57 -2 -80 0 -24 2 -7 4 37 4 44 0 63 -2
43 -4z m345 0 c-57 -2 -149 -2 -205 0 -57 1 -11 3 102 3 113 0 159 -2 103 -3z
m1853 -57 c115 -21 280 -63 332 -86 55 -25 61 -25 36 -1 -10 10 -22 17 -26 15
-11 -7 -19 14 -8 21 17 11 56 -3 89 -31 17 -14 31 -21 31 -15 0 15 27 14 33
-1 2 -7 0 -24 -4 -37 -8 -20 -11 -22 -27 -10 -13 10 -12 8 3 -11 11 -14 23
-27 26 -30 118 -94 228 -225 327 -389 41 -67 128 -228 194 -358 199 -393 235
-459 280 -511 l28 -33 0 30 c0 20 8 35 23 46 67 47 146 95 156 95 6 0 11 4 11
10 0 5 17 18 38 29 101 52 122 64 133 77 6 8 18 14 25 14 8 0 31 15 52 34 21
19 65 45 98 57 32 12 67 29 77 37 9 8 42 17 73 20 47 4 58 1 75 -17 11 -11 24
-21 29 -21 18 0 79 -126 90 -188 14 -78 5 -125 -34 -182 -35 -52 -242 -250
-261 -250 -6 0 -20 -9 -30 -20 -10 -11 -22 -20 -27 -20 -10 0 -90 -62 -123
-96 -11 -11 -38 -33 -60 -50 -22 -16 -46 -37 -53 -47 -8 -10 -49 -55 -93 -101
-56 -59 -89 -86 -116 -94 -21 -6 -64 -18 -95 -27 -74 -22 -103 -18 -103 14 0
20 -8 27 -46 40 -66 23 -105 74 -243 316 -31 55 -61 107 -66 115 -95 152 -207
343 -238 405 -69 139 -169 294 -236 363 -39 41 -83 80 -98 88 -14 7 -32 20
-40 27 -8 8 -28 22 -46 31 -17 9 -29 22 -26 29 3 8 -21 28 -61 51 -36 21 -65
41 -65 45 0 4 -26 14 -57 22 -49 12 -373 14 -2071 14 -1907 0 -2014 1 -2023
18 -6 9 -17 17 -25 17 -8 0 -19 11 -24 24 -5 14 -20 32 -33 41 -13 8 -29 26
-35 40 -7 15 -20 25 -32 25 -17 0 -19 5 -14 44 4 27 2 46 -5 50 -21 13 -11 56
22 91 17 18 73 55 122 80 72 37 118 53 230 77 238 51 253 51 1725 67 547 6
1081 12 1185 14 631 9 922 7 1001 -7z m-4571 -156 c-9 -15 -65 -52 -65 -43 0
4 15 18 33 30 37 25 40 27 32 13z m-75 -53 c0 -2 -9 -12 -20 -22 -24 -21 -27
-14 -4 9 15 15 24 20 24 13z m-164 -138 c-36 -39 -66 -78 -66 -85 0 -8 -3 -14
-8 -14 -6 0 -20 -34 -33 -80 -8 -28 -324 -646 -364 -710 -12 -19 -27 -50 -34
-67 -8 -18 -17 -33 -22 -33 -5 0 -9 -4 -9 -10 0 -13 -154 -302 -194 -364 -29
-46 -98 -92 -118 -80 -13 8 -9 47 7 68 8 11 15 31 15 45 0 29 39 91 58 91 6 0
12 5 12 10 0 6 17 37 39 68 21 31 129 222 240 423 298 543 351 628 470 751 81
82 86 72 7 -13z m-1671 -793 c-5 -42 -4 -43 19 -39 17 4 27 -1 35 -16 6 -11
10 -24 9 -29 -4 -12 44 -112 54 -112 4 0 57 -44 116 -97 117 -107 166 -147
227 -183 22 -13 42 -27 45 -31 6 -9 64 -43 117 -70 23 -11 47 -27 54 -35 6 -8
22 -14 34 -14 12 0 28 -6 34 -14 16 -19 17 -87 2 -115 -12 -22 -18 -23 -75
-18 -33 2 -77 12 -96 20 -84 37 -107 46 -147 56 -24 7 -43 16 -43 21 0 6 -6
10 -12 10 -7 0 -26 7 -41 15 -16 8 -38 16 -50 18 -12 2 -29 7 -37 10 -30 12
-128 26 -148 20 -12 -3 -28 1 -35 8 -8 8 -31 27 -52 44 -80 63 -128 232 -106
373 11 76 48 171 78 204 23 25 24 23 18 -26z m2065 -396 c0 -6 -11 -28 -25
-50 -14 -22 -25 -43 -25 -47 0 -5 -9 -19 -20 -33 -11 -14 -20 -35 -20 -48 0
-12 -16 -45 -35 -72 -19 -27 -35 -54 -35 -59 0 -5 -7 -14 -15 -21 -8 -7 -15
-21 -15 -32 0 -15 -3 -16 -13 -7 -10 10 -7 24 17 73 16 34 33 68 38 76 4 8 13
26 19 40 5 13 13 27 17 30 4 3 25 40 47 82 22 43 46 78 53 78 6 0 12 -5 12
-10z m4011 -220 c-22 -189 -32 -247 -46 -247 -9 0 -10 8 -4 31 11 37 34 213
46 346 l8 95 3 -65 c2 -36 -1 -108 -7 -160z m-5891 -55 c19 -14 29 -25 23 -25
-12 0 -73 49 -62 50 3 0 20 -11 39 -25z m6680 -57 c19 -40 35 -75 35 -78 5
-19 40 -80 47 -80 4 0 8 -8 8 -19 0 -10 7 -24 15 -31 8 -7 15 -19 15 -26 0 -8
4 -14 9 -14 5 0 17 -12 26 -27 l18 -26 -31 21 c-46 33 -92 90 -118 146 -13 28
-24 56 -24 62 0 6 -11 38 -25 72 -28 68 -29 72 -17 72 5 0 24 -33 42 -72z
m-6470 -90 c14 -13 20 -19 13 -14 -7 5 -13 5 -13 2 0 -4 -7 -1 -15 6 -34 31
-43 36 -51 30 -4 -4 -4 -1 0 6 4 6 2 12 -3 12 -6 0 -11 5 -11 11 0 11 36 -13
80 -53z m298 -65 c36 -6 43 -31 16 -57 -14 -14 -18 -14 -37 -1 -12 8 -33 16
-47 16 -18 1 -20 3 -7 6 17 4 17 7 -5 30 l-23 26 35 -7 c19 -4 50 -10 68 -13z
m5332 -30 c-11 -17 -11 -17 -6 0 3 10 6 24 7 30 0 9 2 9 5 0 3 -7 0 -20 -6
-30z"/>
<path d="M6308 6423 c6 -2 18 -2 25 0 6 3 1 5 -13 5 -14 0 -19 -2 -12 -5z"/>
<path d="M6208 6413 c12 -2 30 -2 40 0 9 3 -1 5 -23 4 -22 0 -30 -2 -17 -4z"/>
<path d="M7118 6373 c12 -2 30 -2 40 0 9 3 -1 5 -23 4 -22 0 -30 -2 -17 -4z"/>
<path d="M6008 5993 c-127 -116 -477 -478 -470 -484 4 -4 78 -28 165 -55 156
-47 158 -48 176 -28 17 16 138 186 250 351 20 29 41 52 46 52 6 0 84 -40 175
-89 l164 -89 56 32 c174 99 266 168 273 205 3 15 3 30 1 34 -3 4 -31 7 -64 6
-33 -1 -65 4 -73 10 -15 13 -47 6 -47 -10 0 -5 -5 -6 -11 -3 -5 4 -18 0 -27
-8 -9 -9 -20 -16 -25 -16 -4 -1 -23 -8 -43 -16 -20 -8 -42 -15 -48 -15 -7 0
-99 43 -204 95 -106 52 -199 95 -207 95 -8 0 -48 -30 -87 -67z"/>
<path d="M7751 5916 c-10 -11 -8 -24 10 -58 37 -74 102 -183 111 -186 4 -2 6
-8 2 -13 -3 -5 0 -9 6 -9 6 0 8 -4 5 -10 -3 -5 0 -7 8 -4 8 3 18 0 23 -7 4 -8
3 -10 -4 -5 -7 4 -12 1 -12 -6 0 -13 4 -22 48 -103 23 -42 30 -35 10 12 -6 15
-10 34 -9 41 1 7 -18 50 -42 95 -25 45 -47 102 -51 127 -5 32 -16 56 -42 83
-19 20 -41 37 -47 37 -7 0 -6 4 3 10 8 5 10 10 4 10 -6 0 -17 -6 -23 -14z"/>
<path d="M7976 5471 c-3 -5 0 -11 7 -14 8 -3 14 1 14 9 0 16 -13 19 -21 5z"/>
<path d="M8053 5374 c3 -19 1 -24 -10 -20 -8 3 11 -43 43 -102 85 -161 153
-290 239 -457 43 -82 80 -152 82 -155 7 -7 -1 67 -17 155 -9 53 -30 105 -87
215 -42 80 -96 176 -122 214 -25 38 -62 93 -81 122 -38 58 -55 69 -47 28z"/>
<path d="M9070 4336 c7 -7 13 -7 20 0 6 6 3 10 -10 10 -13 0 -16 -4 -10 -10z"/>
<path d="M7233 8700 c-24 -10 -43 -21 -43 -23 0 -5 124 4 130 10 5 5 -29 33
-39 33 -3 0 -25 -9 -48 -20z"/>
<path d="M6766 7821 c-3 -5 -22 -12 -43 -16 -49 -9 -266 -82 -320 -107 -50
-23 -54 -35 -15 -44 15 -4 41 -15 57 -24 35 -21 170 -36 159 -18 -14 23 77 0
105 -25 14 -14 40 -29 56 -32 59 -14 251 -114 298 -155 27 -24 62 -67 79 -97
32 -56 62 -75 231 -144 34 -13 72 -39 91 -59 18 -20 48 -46 67 -58 52 -32 90
-69 122 -115 16 -23 26 -33 24 -22 -3 11 -9 36 -12 55 -18 87 -108 242 -182
311 -21 20 -74 62 -118 94 -44 32 -114 89 -155 127 -150 138 -356 278 -410
278 -10 0 -26 3 -35 6 -14 6 -13 9 6 30 12 13 17 24 11 24 -6 0 -13 -4 -16 -9z"/>
<path d="M6008 7583 c7 -3 16 -2 19 1 4 3 -2 6 -13 5 -11 0 -14 -3 -6 -6z"/>
<path d="M6060 7580 c20 -13 43 -13 35 0 -3 6 -16 10 -28 10 -18 0 -19 -2 -7
-10z"/>
<path d="M6200 7220 c0 -40 3 -70 6 -67 8 7 6 128 -1 135 -3 3 -5 -28 -5 -68z"/>
<path d="M5879 7103 c-1 -32 -1 -62 0 -67 1 -4 6 -45 12 -90 16 -128 22 -139
85 -171 60 -30 79 -27 46 8 -24 26 -52 87 -52 116 0 10 -9 38 -20 62 -10 24
-27 79 -36 122 -9 42 -21 77 -25 77 -5 0 -10 -26 -10 -57z"/>
<path d="M6202 6960 c0 -19 2 -27 5 -17 2 9 2 25 0 35 -3 9 -5 1 -5 -18z"/>
<path d="M2640 2422 c0 -4 9 -13 20 -20 11 -7 20 -9 20 -4 0 4 -9 13 -20 20
-11 7 -20 9 -20 4z"/>
<path d="M3580 2080 c-8 -5 -10 -10 -5 -10 6 0 17 5 25 10 8 5 11 10 5 10 -5
0 -17 -5 -25 -10z"/>
</g>
</svg>
